<svg width="22" height="26" fill="none" xmlns="http://www.w3.org/2000/svg"><path d="M11 26c-1.93 0-3.5-1.57-3.5-3.5a.5.5 0 011 0c0 1.378 1.121 2.5 2.5 2.5s2.5-1.122 2.5-2.5a.5.5 0 011 0c0 1.93-1.57 3.5-3.5 3.5zm8.5-5h-17c-.827 0-2-.673-2-1.5 0-.439.691-.854 1.024-1.14a.514.514 0 01.067-.048A6.974 6.974 0 004 13.04V10c0-3.86 3.141-7 7-7 .08 0 .177.003.257.019a.5.5 0 11-.194.981C7.691 4 5 6.692 5 10v3.04a7.973 7.973 0 01-2.815 6.081.462.462 0 01-.05.037A.5.5 0 002.5 20h17a.5.5 0 00.363-.843.546.546 0 01-.048-.036A7.973 7.973 0 0117 13.04v-1.07a.5.5 0 011 0v1.07c0 2.026.878 3.944 2.411 5.274a.435.435 0 01.064.046c.334.286 1.025.701 1.025 1.14 0 .827-1.173 1.5-2 1.5z" fill="#A2A2C2"/><circle cx="18" cy="4" r="4" fill="#FF808B"/></svg>