<svg width="18" height="18" fill="none" xmlns="http://www.w3.org/2000/svg"><g clip-path="url(#clip0_10_91)" fill="#A2A2C2"><path d="M5.25 16.5h-1.5a2.25 2.25 0 01-2.25-2.25V3.75A2.25 2.25 0 013.75 1.5h1.5a.75.75 0 000-1.5h-1.5A3.755 3.755 0 000 3.75v10.5A3.754 3.754 0 003.75 18h1.5a.75.75 0 100-1.5z"/><path d="M13.903 14.03l3.44-3.44a2.256 2.256 0 000-3.18l-3.44-3.44a.75.75 0 00-1.06 1.06l3.219 3.22H4.5a.75.75 0 000 1.5h11.563l-3.22 3.22a.75.75 0 101.06 1.06z"/></g><defs><clipPath id="clip0_10_91"><path fill="#fff" d="M0 0h18v18H0z"/></clipPath></defs></svg>