<svg width="33" height="29" fill="none" xmlns="http://www.w3.org/2000/svg"><path d="M24.001 16.247A12.011 12.011 0 1012.018 29h6.983a5.005 5.005 0 005-5v-7.753zm-2 7.753a3 3 0 01-3 3h-6.983a10.04 10.04 0 01-7.476-3.343 9.917 9.917 0 01-2.476-7.814 10.043 10.043 0 018.656-8.761c.431-.054.866-.081 1.3-.082a9.92 9.92 0 016.38 2.3 10.042 10.042 0 013.6 7.042V24z" fill="#A2A2C2"/><path d="M8.001 14h4a1 1 0 000-2h-4a1 1 0 000 2zm8 2h-8a1 1 0 000 2h8a1 1 0 000-2zm0 4h-8a1 1 0 000 2h8a1 1 0 000-2z" fill="#A2A2C2"/><circle cx="23.5" cy="9.5" r="9" fill="#FF808B" stroke="#FEFEFE"/></svg>