<svg width="47" height="47" fill="none" xmlns="http://www.w3.org/2000/svg"><path d="M2 23.5H.5 2zm8.063 0h-1.5 1.5zM23.5 36.938v1.5-1.5zM36.938 23.5h1.5-1.5zM23.5.5A23 23 0 007.237 7.237l2.12 2.12A20 20 0 0123.5 3.5v-3zM7.237 7.237A23 23 0 00.5 23.5h3A20 20 0 019.358 9.358L7.237 7.237zM.5 23.5a23 23 0 006.737 16.264l2.12-2.122A20 20 0 013.5 23.5h-3zm6.737 16.264A23 23 0 0023.5 46.5v-3a20 20 0 01-14.142-5.858l-2.121 2.121zM23.5 46.5a23 23 0 0016.264-6.736l-2.122-2.122A20 20 0 0123.5 43.5v3zm16.264-6.736A23 23 0 0046.5 23.5h-3a20 20 0 01-5.858 14.142l2.121 2.121zM46.5 23.5a23 23 0 00-6.736-16.263l-2.122 2.12A20 20 0 0143.5 23.5h3zM39.764 7.237A23 23 0 0023.5.5v3a20 20 0 0114.142 5.858l2.121-2.121zM23.5 8.562a14.938 14.938 0 00-10.562 4.376l2.12 2.12a11.938 11.938 0 018.442-3.495v-3zm-10.562 4.376A14.938 14.938 0 008.562 23.5h3c0-3.166 1.258-6.202 3.497-8.441l-2.121-2.121zM8.562 23.5c0 3.962 1.574 7.761 4.376 10.562l2.12-2.12a11.938 11.938 0 01-3.495-8.442h-3zm4.376 10.562A14.938 14.938 0 0023.5 38.438v-3a11.938 11.938 0 01-8.441-3.497l-2.121 2.121zM23.5 38.438c3.962 0 7.761-1.574 10.562-4.376l-2.12-2.12a11.938 11.938 0 01-8.442 3.495v3zm10.562-4.376A14.938 14.938 0 0038.438 23.5h-3c0 3.166-1.258 6.202-3.497 8.441l2.121 2.121zM38.438 23.5c0-3.962-1.574-7.761-4.376-10.562l-2.12 2.12a11.938 11.938 0 013.495 8.442h3zm-4.376-10.562A14.938 14.938 0 0023.5 8.562v3c3.166 0 6.202 1.258 8.441 3.497l2.121-2.121zm-19.561-1.36c-4.743 3.795-7.457 8.403-7.948 13.802-.486 5.344 1.226 11.256 4.895 17.677l2.604-1.489c-3.497-6.12-4.921-11.407-4.511-15.917.405-4.455 2.618-8.357 6.834-11.73L14.5 11.58zm17.998 23.843c4.737-3.789 7.456-8.346 7.948-13.703.486-5.3-1.228-11.165-4.895-17.582l-2.604 1.489c3.5 6.125 4.92 11.361 4.511 15.819-.404 4.4-2.612 8.257-6.834 11.635L32.5 35.42z" fill="#2F5DF2"/></svg>